# xmcd
#
# Track frame offsets:
#	150
#	17482
#	42615
#	60476
#	80131
#	99412
#	117120
#	134373
#	151628
#	172631
#
# Disc length: 2484 seconds
#
# Revision: 1
# Processed by: cddbd v1.5.1PL2 Copyright (c) Steve Scherf et al.
# Submitted via: audiograbber 1.83.01
#
DISCID=6f09b20a
DTITLE=Stoni Blues Band - Kívánj boldog szeretõt
DYEAR=1999
DGENRE=Rock
TTITLE0=Soul to Soul
TTITLE1=Bonnie and Klyde
TTITLE2=Kívánj boldog szeretõt
TTITLE3=Monalisa
TTITLE4=Kamion
TTITLE5=Sírjál mindenért
TTITLE6=Jel
TTITLE7=Kövér ember blues
TTITLE8=Pumpálni kell
TTITLE9=Új ezer év
EXTD=
EXTT0=
EXTT1=
EXTT2=
EXTT3=
EXTT4=
EXTT5=
EXTT6=
EXTT7=
EXTT8=
EXTT9=
PLAYORDER=
